<svg width="42" height="40" viewBox="0 0 42 40" fill="none" xmlns="http://www.w3.org/2000/svg">
<path fill-rule="evenodd" clip-rule="evenodd" d="M3.98622 15.7281H15.5363C14.4999 16.1866 13.5532 16.8044 12.7161 17.5618H3.98622C3.89653 17.5618 3.82677 17.4921 3.82677 17.4024V15.8876C3.81681 15.7979 3.89653 15.7281 3.98622 15.7281ZM24.2562 15.7281H35.1884C35.2781 15.7281 35.3479 15.7979 35.3479 15.8876V17.3924C35.3479 17.4821 35.2781 17.5518 35.1884 17.5518H27.0665C26.5881 17.1134 26.06 16.7247 25.5019 16.3759C25.0933 16.1367 24.6747 15.9175 24.2562 15.7281Z" fill="#747474"/>
<path fill-rule="evenodd" clip-rule="evenodd" d="M1.55463 35.3503H15.7057C17.7985 36.2373 20.1205 36.4466 22.3727 35.9084C22.9607 35.7689 23.5287 35.5795 24.0768 35.3503H30.2555C30.4548 35.6892 30.7338 35.9881 31.1025 36.2074L36.2049 39.2768H0.189346C0.0797247 39.2768 0 39.207 0 39.1074V37.0445C0 36.9548 0.0896903 36.8751 0.189346 36.8751H1.17594C1.28556 36.8751 1.36528 36.8053 1.36528 36.7057V35.5098C1.36528 35.4301 1.45497 35.3503 1.55463 35.3503Z" fill="#747474"/>
<path fill-rule="evenodd" clip-rule="evenodd" d="M5.76022 18.7079H6.44785H11.4805H11.62C11.311 19.0766 11.032 19.4752 10.7829 19.8838C9.28803 22.3055 8.82962 25.2054 9.48734 27.9759C10.0056 30.1484 11.1815 32.0817 12.8258 33.5367V33.7061C12.8258 34.0449 12.5468 34.3239 12.2079 34.3239H5.71039C5.37157 34.3239 5.09253 34.0449 5.09253 33.7061V32.2312C5.09253 31.8923 5.37157 31.6133 5.71039 31.6133H5.83995C6.17878 31.6133 6.45781 31.3343 6.45781 30.9954V20.8405C6.45781 20.5017 6.17878 20.2227 5.83995 20.2227H5.76022C5.42139 20.2227 5.14236 19.9436 5.14236 19.6048V19.3258C5.14236 18.9869 5.42139 18.7079 5.76022 18.7079Z" fill="#747474"/>
<path fill-rule="evenodd" clip-rule="evenodd" d="M28.1726 18.7079H32.7468H33.4344C33.7733 18.7079 34.0523 18.9869 34.0523 19.3258V19.6048C34.0523 19.9436 33.7733 20.2227 33.4344 20.2227H33.3547C33.0159 20.2227 32.7368 20.5017 32.7368 20.8405V30.2978C32.4478 30.3576 32.1688 30.4772 31.9197 30.6367C31.83 30.0487 31.4911 29.5006 30.953 29.1717L30.1059 28.6535C30.664 26.8398 30.7338 24.9065 30.2853 23.023C29.9265 21.4185 29.1891 19.9536 28.1726 18.7079Z" fill="#747474"/>
<path fill-rule="evenodd" clip-rule="evenodd" d="M19.5426 0.0822159L29.0995 7.24746L38.1383 14.024C38.2579 14.1137 38.2977 14.2533 38.2479 14.3828C38.1881 14.5124 38.0486 14.5921 37.8892 14.5921H19.2934H0.687701C0.528252 14.5921 0.388734 14.5124 0.32894 14.3828C0.269147 14.2533 0.309009 14.1137 0.438562 14.024L9.47733 7.24746L19.0343 0.0822159C19.1838 -0.0274053 19.403 -0.0274053 19.5426 0.0822159Z" fill="#747474"/>
<path fill-rule="evenodd" clip-rule="evenodd" d="M27.5449 30.9059L28.1728 29.8894L35.7665 34.4935L35.1387 35.51L27.5449 30.9059Z" fill="#747474"/>
<path fill-rule="evenodd" clip-rule="evenodd" d="M31.252 33.4269L32.1389 32.0018C32.5276 31.3839 33.3547 31.1846 33.9826 31.5633L41.3671 36.008C41.9949 36.3867 42.1842 37.2038 41.8055 37.8217L40.9186 39.2468C40.53 39.8646 39.7028 40.0639 39.075 39.6853L31.6905 35.2406C31.0527 34.852 30.8634 34.0447 31.252 33.4269Z" fill="#747474"/>
<path fill-rule="evenodd" clip-rule="evenodd" d="M26.5582 30.3076L27.1861 29.2911C27.4551 28.8526 28.0431 28.7131 28.4916 28.9822L30.375 30.1382C30.8135 30.4073 30.953 30.9952 30.684 31.4437L30.0561 32.4602C29.7871 32.8987 29.1991 33.0382 28.7507 32.7691L26.8672 31.6131C26.4287 31.3341 26.2892 30.7461 26.5582 30.3076Z" fill="#747474"/>
<path fill-rule="evenodd" clip-rule="evenodd" d="M11.7395 20.4915C14.5099 15.9871 20.3996 14.5919 24.904 17.3524C29.4084 20.1228 30.8036 26.0125 28.0431 30.5169C25.2727 35.0213 19.3831 36.4165 14.8786 33.6561C10.3742 30.8757 8.97901 24.986 11.7395 20.4915ZM13.3539 21.4781C15.5762 17.8706 20.2999 16.7445 23.9174 18.9668C27.5249 21.1891 28.651 25.9128 26.4287 29.5303C24.2064 33.1378 19.4827 34.264 15.8652 32.0416C12.2577 29.8193 11.1316 25.0857 13.3539 21.4781Z" fill="#747474"/>
<path d="M16.6825 20.2327H23.469V20.2426C23.0704 20.8605 22.8412 21.1894 22.7913 21.2292H20.9776C21.2268 21.5182 21.3962 21.877 21.4859 22.2955H23.4192C23.4391 22.2955 23.459 22.3055 23.459 22.3254C23.0305 22.9732 22.8013 23.3021 22.7913 23.3021H21.5357C21.5058 23.6409 21.3463 24.0395 21.0573 24.5079C20.6687 24.9862 20.3 25.2952 19.9512 25.4347C19.2934 25.7536 18.6656 25.9031 18.0577 25.9031V25.913C18.0577 25.9629 19.423 27.5773 22.1436 30.7663H20.3398C17.689 27.6769 16.3636 26.1223 16.3636 26.1124V25.1756L16.3735 25.1357C16.6127 25.1656 16.8818 25.1856 17.2007 25.1856C18.6855 25.1856 19.6123 24.7072 19.9711 23.7405C20.0309 23.601 20.0508 23.4515 20.0508 23.3021H16.0148C15.9948 23.3021 15.9849 23.2921 15.9849 23.2722C16.4333 22.6244 16.6625 22.2955 16.6725 22.2955H19.8814V22.2856C19.702 21.9168 19.3433 21.6278 18.8151 21.4186C18.4364 21.299 18.0976 21.2392 17.7986 21.2392H16.0048V21.1993C16.4433 20.5516 16.6625 20.2327 16.6825 20.2327Z" fill="#747474"/>
</svg>
